<?xml version="1.0" encoding="UTF-8"?>
<!DOCTYPE svg PUBLIC "-//W3C//DTD SVG 1.1//EN" "http://www.w3.org/Graphics/SVG/1.1/DTD/svg11.dtd">
<!-- Creator: CorelDRAW X8 -->
<svg xmlns="http://www.w3.org/2000/svg" xml:space="preserve" width="100px" height="100px" version="1.1" style="shape-rendering:geometricPrecision; text-rendering:geometricPrecision; image-rendering:optimizeQuality; fill-rule:evenodd; clip-rule:evenodd"
viewBox="0 0 403181 403181"
 xmlns:xlink="http://www.w3.org/1999/xlink">
 <defs>
  <style type="text/css">
   <![CDATA[
    .fil0 {fill:#2A2928}
    .fil1 {fill:white}
   ]]>
  </style>
 </defs>
 <g id="Слой_x0020_1">
  <metadata id="CorelCorpID_0Corel-Layer"/>
  <rect class="fil0" x="2" width="403176" height="403181"/>
  <g id="_826244512">
   <path class="fil1" d="M139667 165876l158128 0 0 109381 -158128 0 0 -109381zm-13081 -7133l0 124242c0,3862 3819,5943 7728,5943l167643 0c5471,0 8919,-2304 8919,-7724l0 -120680c0,-3910 -2086,-7729 -5948,-7729l-172400 0c-3338,0 -5942,2605 -5942,5948z"/>
   <path class="fil1" d="M206247 238400c-1652,-791 -6514,-1381 -8481,-1629 -5371,-666 -13295,-781 -18638,72 -2662,423 -5719,1162 -8185,1923 -4076,1262 -9967,4553 -12686,7529 -2771,3033 -6605,9190 -6705,13505l134352 0c-209,-2562 -2804,-9538 -3823,-12224 -848,-2238 -1315,-4205 -2115,-6205l-11300 -30909c-466,1757 -3890,6166 -5181,7895l-5519 8152c-1852,-495 -4342,-4814 -6190,-7485 -2481,-3586 -15657,-23200 -17591,-24615 -3438,6500 -16319,25105 -20833,32667 -2209,3700 -5047,7433 -7105,11324z"/>
   <path class="fil1" d="M96862 129019l0 123647c0,8386 11519,6539 19619,6539l0 -13077c-3300,0 -3529,-595 -6543,-595l0 -109381 158133 0 0 6538c2581,0 3891,434 5405,477l7676 -477c0,-7890 1838,-19619 -5948,-19619l-172399 0c-2986,0 -5943,2957 -5943,5948z"/>
   <path class="fil1" d="M179495 217000c10010,0 16300,-6581 16548,-14910 243,-8038 -6119,-15409 -16548,-15409 -7476,0 -13952,7566 -14171,14914 -229,7567 6757,15405 14171,15405z"/>
  </g>
 </g>
</svg>
