<?xml version="1.0" encoding="UTF-8"?>
<!DOCTYPE svg PUBLIC "-//W3C//DTD SVG 1.1//EN" "http://www.w3.org/Graphics/SVG/1.1/DTD/svg11.dtd">
<!-- Creator: CorelDRAW X8 -->
<svg xmlns="http://www.w3.org/2000/svg" xml:space="preserve" width="100px" height="100px" version="1.1" style="shape-rendering:geometricPrecision; text-rendering:geometricPrecision; image-rendering:optimizeQuality; fill-rule:evenodd; clip-rule:evenodd"
viewBox="0 0 403181 403181"
 xmlns:xlink="http://www.w3.org/1999/xlink">
 <defs>
  <style type="text/css">
   <![CDATA[
    .fil0 {fill:#2A2928}
    .fil1 {fill:white}
   ]]>
  </style>
 </defs>
 <g id="Слой_x0020_1">
  <metadata id="CorelCorpID_0Corel-Layer"/>
  <rect class="fil0" x="2" width="403176" height="403181"/>
  <g id="_830380800">
   <path class="fil1" d="M198357 123909c0,2515 5029,6619 7595,9186 13943,13943 11595,5014 22348,12124 4838,3200 6795,6195 6795,12252 0,7343 -7067,13186 -11000,17119l-42519 42748c-8052,-672 -7881,-1872 -15305,5557l-47171 47167c-2895,2900 -6010,5190 -6010,10319 0,11328 14996,24490 24038,24490 5429,0 7300,-2995 10091,-5786l47624 -47619c3428,-3428 6233,-4757 6233,-10542 0,-5939 -2805,-2410 4876,-10096l39914 -39909c17005,-17005 16800,-17257 25181,-8629 7667,7896 9400,22924 9400,34596 0,1561 -338,1757 -452,3171l13495 13262 2924 -9538c5200,-19076 9324,-48976 -4971,-65062l-21315 -21319c-1795,-1791 -9295,-9753 -10743,-10572 -3961,-2223 -8676,3905 -14252,-12052 -1662,-4752 -1495,-5257 -6300,-10028 -13924,-13848 -8128,-15229 -34238,10885 -1743,1738 -6238,5448 -6238,8276z"/>
   <path class="fil1" d="M132247 99528c1653,2520 8196,8424 10891,11115 5500,5500 7595,7100 7595,15081 0,3947 -962,7595 -2405,10290 -3495,6510 -12961,15933 -20514,17586 -3028,662 -8695,590 -11447,143 -5153,-843 -16129,-15110 -20510,-18043 -2262,3381 -4081,1914 -4081,6805 0,24347 30867,53028 55957,45523 2467,-738 4476,-1938 6629,-2438 2605,1743 16762,17234 17690,17234 2748,0 4076,-277 5362,-1443 1148,-1038 2210,-2272 3367,-3434l20295 -20519 -19390 -19161c4219,-8215 5104,-15920 2461,-25134 -4085,-14219 -14557,-27100 -27809,-33419 -6033,-2876 -11571,-4157 -19662,-4833l-4429 4647z"/>
   <path class="fil1" d="M261852 276752c0,-16038 21772,-14062 21772,-457 0,5224 -4386,10400 -10524,10762 -5681,338 -11248,-4686 -11248,-10305zm-46714 -32200c0,3005 3990,5572 6914,8500 8091,8091 23253,22195 29433,30438 2205,2938 4177,5567 6420,8548l6328 8638c1595,2219 1767,2028 4510,2743 8947,2338 5852,2057 9547,-1615 3514,-3495 21157,-21538 23019,-22785 -443,-1905 -1005,-3519 -1538,-5719 -1509,-6186 -2162,-4443 -9028,-10019 -7677,-6229 -11472,-7434 -19481,-15443 -2434,-2433 -29405,-28981 -30729,-30952 -1967,1314 -19481,19338 -23252,23004 -1395,1357 -2143,2048 -2143,4662z"/>
  </g>
 </g>
</svg>
