<?xml version="1.0" encoding="UTF-8"?>
<!DOCTYPE svg PUBLIC "-//W3C//DTD SVG 1.1//EN" "http://www.w3.org/Graphics/SVG/1.1/DTD/svg11.dtd">
<!-- Creator: CorelDRAW X8 -->
<svg xmlns="http://www.w3.org/2000/svg" xml:space="preserve" width="100px" height="100px" version="1.1" style="shape-rendering:geometricPrecision; text-rendering:geometricPrecision; image-rendering:optimizeQuality; fill-rule:evenodd; clip-rule:evenodd"
viewBox="0 0 403181 403181"
 xmlns:xlink="http://www.w3.org/1999/xlink">
 <defs>
  <style type="text/css">
   <![CDATA[
    .fil0 {fill:#2A2928}
    .fil1 {fill:white}
   ]]>
  </style>
 </defs>
 <g id="Слой_x0020_1">
  <metadata id="CorelCorpID_0Corel-Layer"/>
  <rect class="fil0" x="2" width="403176" height="403181"/>
  <g id="_830381280">
   <g id="icomoon-ignore">
   </g>
   <path class="fil1" d="M201590 93619c-59628,0 -107971,48352 -107971,107971 0,59629 48343,107972 107971,107972 59629,0 107972,-48343 107972,-107972 0,-59628 -48343,-107971 -107972,-107971zm0 192471c-46676,0 -84500,-37838 -84500,-84500 0,-46662 37824,-84500 84500,-84500 46676,0 84500,37838 84500,84500 0,46662 -37824,84500 -84500,84500zm8215 -145528l-16429 0 0 64433 39962 39962 11619 -11619 -35152 -35152 0 -57624z"/>
  </g>
 </g>
</svg>
