<?xml version="1.0" encoding="UTF-8"?>
<!DOCTYPE svg PUBLIC "-//W3C//DTD SVG 1.1//EN" "http://www.w3.org/Graphics/SVG/1.1/DTD/svg11.dtd">
<!-- Creator: CorelDRAW X8 -->
<svg xmlns="http://www.w3.org/2000/svg" xml:space="preserve" width="100px" height="100px" version="1.1" style="shape-rendering:geometricPrecision; text-rendering:geometricPrecision; image-rendering:optimizeQuality; fill-rule:evenodd; clip-rule:evenodd"
viewBox="0 0 403181 403181"
 xmlns:xlink="http://www.w3.org/1999/xlink"
 enable-background="new 0 0 1000 1000">
 <defs>
  <style type="text/css">
   <![CDATA[
    .fil0 {fill:#2A2928}
    .fil1 {fill:white}
   ]]>
  </style>
 </defs>
 <g id="Слой_x0020_1">
  <metadata id="CorelCorpID_0Corel-Layer"/>
  <rect class="fil0" x="2" width="403176" height="403181"/>
  <g id="_659274496">
   <g>
    <path class="fil1" d="M299309 157752c0,-3252 -2709,-5985 -5985,-5985 -867,0 -1734,0 -2600,0 0,0 -24,0 -24,0 -7305,0 -14634,0 -21938,0 -18148,0 -36296,0 -54443,0 -18453,0 -36924,0 -55376,0 -7719,0 -15438,0 -23157,0 -2062,-7091 -4100,-14158 -6158,-21248 -476,-1629 -933,-3252 -1409,-4857 -738,-2557 -3081,-4400 -5767,-4400 -9885,0 -19752,0 -29638,0 -3252,0 -5986,2709 -5986,5981 0,3252 2710,5985 5986,5985 8391,0 16757,0 25148,0 2214,7591 4405,15200 6614,22786 3600,12424 7200,24829 10800,37252 62,843 300,1624 671,2343 1496,5115 2967,10253 4467,15372 4138,14309 8305,28595 12443,42904 476,1629 933,3253 1410,4858 738,2562 3080,4404 5766,4404 10757,0 21510,0 32262,0 18995,0 38010,0 57005,0 7781,0 15585,0 23371,0 3253,0 5986,-2709 5986,-5985 0,-3253 -2714,-5986 -5986,-5986 -10752,0 -21509,0 -32262,0 -18995,0 -38009,0 -57000,0 -6290,0 -12600,0 -18885,0 -1629,-5591 -3253,-11186 -4881,-16800 7852,0 15676,0 23523,0 19167,0 38334,0 57481,0 8824,0 17648,0 26472,0 0,0 24,0 24,0 738,0 1495,0 2233,0 3252,0 5986,-2714 5986,-5986 0,-1214 -372,-2362 -1019,-3295 3833,-11319 7652,-22638 11490,-33976 3119,-9257 6267,-18514 9386,-27776 2300,-800 3990,-3034 3990,-5591zm-16714 5981c-2605,7700 -5205,15419 -7829,23114 -8195,0 -16371,0 -24566,0 -86,0 -172,0 -262,0 976,-7695 1952,-15414 2928,-23114 4315,0 8629,0 12943,0 5596,0 11191,0 16786,0zm-37167 58695c1000,-7871 1996,-15742 2996,-23633 7433,0 14871,0 22309,0 -2667,7871 -5333,15738 -7981,23633 -5786,0 -11552,0 -17324,0zm-28381 0c0,-7871 0,-15742 0,-23633 3167,0 6310,0 9477,0 3319,0 6614,0 9928,0 -19,152 -43,305 -62,452 -976,7719 -1952,15439 -2947,23158 -5443,23 -10929,23 -16396,23zm-28357 0c-1000,-7871 -1995,-15742 -2995,-23633 6462,0 12948,0 19410,0 0,324 0,629 0,952 0,7567 0,15115 0,22681 -5486,0 -10953,0 -16415,0zm-39266 -23614c6657,0 13314,0 19947,0 1453,0 2905,0 4357,0 24,152 43,305 67,457 976,7719 1952,15438 2948,23157 -6810,0 -13638,0 -20448,0 -2295,-7871 -4595,-15742 -6871,-23614zm67623 -35081c7958,0 15915,0 23853,0 -976,7700 -1953,15419 -2929,23114 -6981,0 -13943,0 -20924,0 0,-152 0,-304 0,-457 0,-7543 0,-15109 0,-22657zm-11942 23114c-4015,0 -8024,0 -12034,0 -2952,0 -5924,0 -8871,0 -976,-7695 -1953,-15414 -2924,-23114 7957,0 15914,0 23848,0 -19,7700 -19,15419 -19,23114zm-49110 -23114c4419,0 8843,0 13267,0 976,7700 1952,15419 2928,23114 -8281,0 -16566,0 -24871,0 -452,0 -929,0 -1386,0 -1300,-4466 -2600,-8933 -3881,-13400 -933,-3228 -1885,-6480 -2819,-9714 5595,0 11186,0 16762,0z"/>
    <path class="fil1" d="M196562 286195c-524,-8543 -7396,-15200 -16048,-15376 -8867,-172 -15890,7481 -16067,16066 -171,8872 7481,15896 16067,16067 8629,176 15505,-7067 16048,-15371 19,-215 43,-457 19,-696 0,-238 0,-476 -19,-690z"/>
    <path class="fil1" d="M268328 286195c-523,-8543 -7395,-15200 -16047,-15376 -8867,-172 -15891,7481 -16067,16066 -171,8872 7481,15896 16067,16067 8628,176 15504,-7067 16047,-15371 19,-215 43,-457 19,-696 0,-238 0,-476 -19,-690z"/>
   </g>
  </g>
 </g>
</svg>
